<?xml version="1.0" standalone="no"?>
<!DOCTYPE svg PUBLIC "-//W3C//DTD SVG 20010904//EN"
 "http://www.w3.org/TR/2001/REC-SVG-20010904/DTD/svg10.dtd">
<svg version="1.0" xmlns="http://www.w3.org/2000/svg"
 width="700.000000pt" height="700.000000pt" viewBox="0 0 700.000000 700.000000"
 preserveAspectRatio="xMidYMid meet">
<metadata>
Created by potrace 1.11, written by Peter Selinger 2001-2013
</metadata>
<g transform="translate(0.000000,700.000000) scale(0.100000,-0.100000)"
fill="#000000" stroke="none">
<path d="M3240 6743 c-1248 -117 -2334 -952 -2778 -2134 -126 -335 -189 -670
-197 -1044 l-5 -200 20 84 c62 255 161 441 307 570 67 60 209 133 303 158 100
26 266 23 360 -6 89 -27 167 -68 233 -123 l47 -39 0 500 c0 275 3 502 8 504 7
4 548 -49 590 -58 l22 -5 0 -1450 0 -1450 -274 0 -274 0 -6 43 c-3 23 -8 67
-12 97 -9 86 -11 87 -55 32 -76 -96 -214 -183 -341 -216 -190 -49 -409 -18
-555 79 -29 19 -55 35 -58 35 -17 0 131 -263 237 -423 404 -605 1004 -1065
1698 -1299 796 -268 1676 -206 2427 171 489 245 894 593 1216 1043 316 443
525 995 582 1540 24 234 17 635 -13 786 -6 27 -59 -125 -323 -925 l-316 -958
-363 0 -363 0 -344 1030 c-188 566 -343 1033 -343 1037 0 5 148 8 329 8 l329
0 200 -802 c191 -768 200 -801 211 -763 7 22 101 382 210 800 l198 760 271 3
c150 1 272 5 272 7 0 17 -54 225 -78 305 -123 396 -303 738 -568 1080 -110
143 -373 407 -519 524 -456 363 -970 588 -1550 678 -103 16 -189 21 -410 23
-154 1 -300 1 -325 -2z m385 -2553 c296 -34 517 -163 666 -389 135 -206 201
-520 172 -823 l-6 -68 -663 0 -664 0 0 -28 c0 -45 28 -142 60 -208 40 -82 135
-172 215 -202 186 -71 411 -44 644 78 51 28 97 47 101 45 5 -3 61 -78 126
-167 l117 -162 -39 -33 c-195 -163 -560 -269 -859 -249 -381 26 -646 167 -819
434 -183 282 -229 742 -109 1100 156 469 564 728 1058 672z"/>
<path d="M3400 3767 c-153 -43 -253 -197 -276 -426 l-7 -61 378 0 378 0 -7 83
c-15 201 -88 335 -208 387 -64 28 -192 36 -258 17z"/>
<path d="M1135 3728 c-87 -33 -135 -82 -184 -188 -54 -116 -66 -206 -65 -470
1 -320 28 -447 120 -549 59 -66 110 -85 206 -79 111 7 198 62 283 178 l35 48
0 456 0 457 -49 49 c-73 73 -139 103 -236 107 -44 1 -93 -3 -110 -9z"/>
</g>
</svg>
